<svg xmlns="http://www.w3.org/2000/svg" width="283.08" height="231.61" viewBox="0 0 283.08 231.61"><defs><style>.cls-1{fill:#ff6a81;}.cls-2{fill:#ffb0bf;}</style></defs><g id="Layer_2" data-name="Layer 2"><g id="Layer_1-2" data-name="Layer 1"><polygon class="cls-1" points="235.29 44.12 191.17 44.12 191.17 0 143.38 0 143.38 44.12 47.79 44.12 47.79 91.91 0 91.91 0 191.17 47.79 191.17 47.79 231.61 95.59 231.61 95.59 194.85 95.59 187.5 95.59 136.03 143.38 136.03 143.38 91.91 191.17 91.91 191.17 139.7 143.38 139.7 143.38 187.5 191.17 187.5 191.17 231.61 235.29 231.61 235.29 191.17 283.08 191.17 283.08 143.38 235.29 143.38 235.29 44.12"/><polygon class="cls-2" points="143.38 187.5 143.38 139.7 191.17 139.7 191.17 91.91 143.38 91.91 143.38 136.03 95.59 136.03 95.59 187.5 95.59 194.85 95.59 231.61 191.17 231.61 191.17 187.5 143.38 187.5"/></g></g></svg>