<svg xmlns="http://www.w3.org/2000/svg" width="479" height="479" viewBox="0 0 479 479"><defs><style>.cls-1{fill:#232323;}.cls-2{fill:#fff;}.cls-3{fill:#ff6a81;}.cls-4{fill:#ffb0bf;}</style></defs><g id="Layer_2" data-name="Layer 2"><g id="Layer_1-2" data-name="Layer 1"><path class="cls-1" d="M246,478.91q-3.25.09-6.53.09Q242.77,479,246,478.91Z"/><path class="cls-1" d="M194.1,474.68c-1.45-.27-2.9-.56-4.34-.87C191.2,474.12,192.65,474.41,194.1,474.68Z"/><path class="cls-1" d="M200.09,475.75c-1.41-.23-2.83-.47-4.23-.73C197.26,475.28,198.68,475.52,200.09,475.75Z"/><path class="cls-1" d="M292.24,473.16q-2.78.63-5.56,1.18Q289.47,473.79,292.24,473.16Z"/><path class="cls-1" d="M272,476.8c-1.36.18-2.72.36-4.09.52C269.26,477.16,270.62,477,272,476.8Z"/><path class="cls-1" d="M317.74,465.92A241.48,241.48,0,0,1,292.81,473,239,239,0,0,0,317.74,465.92Z"/><path class="cls-1" d="M188.17,473.47q-2.25-.5-4.47-1Q185.92,473,188.17,473.47Z"/><path class="cls-1" d="M278.5,475.82c-1.42.23-2.85.46-4.28.67C275.65,476.28,277.08,476.05,278.5,475.82Z"/><path class="cls-1" d="M224.68,478.53c-1.36-.08-2.72-.16-4.07-.27C222,478.37,223.32,478.45,224.68,478.53Z"/><path class="cls-1" d="M218.4,478.06c-1.35-.11-2.69-.23-4-.37C215.71,477.83,217.05,478,218.4,478.06Z"/><path class="cls-1" d="M182.28,472.1c-1.54-.37-3.07-.76-4.6-1.17C179.21,471.34,180.74,471.73,182.28,472.1Z"/><path class="cls-1" d="M212.23,477.45c-1.36-.16-2.72-.31-4.07-.49C209.51,477.14,210.87,477.29,212.23,477.45Z"/><path class="cls-1" d="M285.16,474.63c-1.56.3-3.12.59-4.68.86C282,475.22,283.6,474.93,285.16,474.63Z"/><path class="cls-1" d="M231.24,478.84c-1.46,0-2.91-.1-4.36-.17C228.33,478.74,229.78,478.79,231.24,478.84Z"/><path class="cls-1" d="M206.13,476.68c-1.38-.2-2.76-.39-4.14-.61C203.37,476.29,204.75,476.48,206.13,476.68Z"/><path class="cls-1" d="M239.5,479c-2.12,0-4.22,0-6.33-.08C235.28,479,237.38,479,239.5,479Z"/><path class="cls-1" d="M259,478.2c-1.36.11-2.73.2-4.09.29C256.3,478.4,257.67,478.31,259,478.2Z"/><path class="cls-1" d="M341.75,456.12c-1.89.9-3.8,1.76-5.71,2.61C338,457.88,339.86,457,341.75,456.12Z"/><path class="cls-1" d="M323.73,463.75q-2.82,1.06-5.67,2.05Q320.91,464.81,323.73,463.75Z"/><path class="cls-1" d="M479,239.5C479,107.23,371.77,0,239.5,0S0,107.23,0,239.5C0,339.37,61.14,425,148,460.89c-1.85-.77-3.69-1.55-5.52-2.36v-4.32h48.84V255H291V454.21h25.4V331.14h25.39v125A239.52,239.52,0,0,0,479,239.5ZM316.36,208.08H291v21.49H191.34V208.08h-25.4V155.34h25.4v-25.4h50.78V106.5h25.4v23.44H291v52.74h25.4Z"/><path class="cls-1" d="M265.5,477.59c-1.34.15-2.68.27-4,.4Z"/><path class="cls-1" d="M153.6,463.12q-2.7-1-5.35-2.13Q150.91,462.09,153.6,463.12Z"/><path class="cls-1" d="M335.69,458.88c-1.82.8-3.64,1.57-5.48,2.33C332.05,460.45,333.87,459.68,335.69,458.88Z"/><path class="cls-1" d="M170.65,468.94q-2.44-.74-4.88-1.52Q168.2,468.2,170.65,468.94Z"/><path class="cls-1" d="M252.54,478.64c-1.47.08-2.95.14-4.43.19C249.59,478.78,251.07,478.72,252.54,478.64Z"/><path class="cls-1" d="M164.91,467.14q-2.52-.83-5-1.71Q162.39,466.31,164.91,467.14Z"/><path class="cls-1" d="M176.44,470.59c-1.59-.43-3.16-.88-4.74-1.34C173.28,469.71,174.85,470.16,176.44,470.59Z"/><path class="cls-1" d="M329.7,461.41c-1.81.74-3.63,1.45-5.46,2.15C326.07,462.86,327.89,462.15,329.7,461.41Z"/><path class="cls-1" d="M159.23,465.2q-2.61-.93-5.19-1.91Q156.62,464.27,159.23,465.2Z"/><rect class="cls-2" x="191.34" y="254.96" width="99.63" height="199.25"/><path class="cls-3" d="M267.89,477.32l-2.39.27Z"/><path class="cls-3" d="M274.22,476.49l-2.24.31Z"/><polygon class="cls-3" points="341.75 456.12 341.75 456.12 341.75 456.12 341.75 456.12"/><path class="cls-3" d="M330.21,461.21l-.51.2Z"/><path class="cls-3" d="M324.24,463.56l-.51.19Z"/><path class="cls-3" d="M336,458.73l-.35.15Z"/><path class="cls-3" d="M286.68,474.34l-1.52.29Z"/><path class="cls-3" d="M318.06,465.8l-.32.12Z"/><path class="cls-3" d="M280.48,475.49l-2,.33Z"/><path class="cls-3" d="M292.81,473l-.57.12Z"/><path class="cls-3" d="M171.7,469.25l-1-.31Z"/><path class="cls-3" d="M177.68,470.93l-1.24-.34Z"/><path class="cls-3" d="M165.77,467.42l-.86-.28Z"/><path class="cls-3" d="M183.7,472.45l-1.42-.35Z"/><path class="cls-3" d="M189.76,473.81l-1.59-.34Z"/><path class="cls-3" d="M195.86,475l-1.76-.34Z"/><path class="cls-3" d="M159.88,465.43l-.65-.23Z"/><path class="cls-3" d="M148.25,461l-.23-.1Z"/><path class="cls-3" d="M154,463.29l-.44-.17Z"/><path class="cls-3" d="M202,476.07l-1.9-.32Z"/><path class="cls-3" d="M226.88,478.67l-2.2-.14Z"/><path class="cls-3" d="M233.17,478.92l-1.93-.08Z"/><path class="cls-3" d="M248.11,478.83l-2.08.08Z"/><path class="cls-3" d="M254.94,478.49c-.8.05-1.6.11-2.4.15C253.34,478.6,254.14,478.54,254.94,478.49Z"/><path class="cls-3" d="M220.61,478.26l-2.21-.2Z"/><path class="cls-3" d="M261.48,478c-.82.07-1.63.15-2.45.21C259.85,478.14,260.66,478.06,261.48,478Z"/><path class="cls-3" d="M208.16,477l-2-.28Z"/><path class="cls-3" d="M214.37,477.69c-.72-.07-1.43-.16-2.14-.24C212.94,477.53,213.65,477.62,214.37,477.69Z"/><path class="cls-3" d="M341.75,331.14H316.36V454.21H142.5v4.32c1.83.81,3.67,1.59,5.52,2.36l.23.1q2.66,1.1,5.35,2.13l.44.17q2.58,1,5.19,1.91l.65.23q2.51.88,5,1.71l.86.28q2.43.78,4.88,1.52l1,.31c1.58.46,3.15.91,4.74,1.34l1.24.34c1.53.41,3.06.8,4.6,1.17l1.42.35q2.22.53,4.47,1l1.59.34c1.44.31,2.89.6,4.34.87l1.76.34c1.4.26,2.82.5,4.23.73l1.9.32c1.38.22,2.76.41,4.14.61l2,.28c1.35.18,2.71.33,4.07.49.71.08,1.42.17,2.14.24,1.34.14,2.68.26,4,.37l2.21.2c1.35.11,2.71.19,4.07.27l2.2.14c1.45.07,2.9.12,4.36.17l1.93.08c2.11.05,4.21.08,6.33.08s4.36,0,6.53-.09l2.08-.08c1.48-.05,3-.11,4.43-.19.8,0,1.6-.1,2.4-.15,1.36-.09,2.73-.18,4.09-.29.82-.06,1.63-.14,2.45-.21,1.34-.13,2.68-.25,4-.4l2.39-.27c1.37-.16,2.73-.34,4.09-.52l2.24-.31c1.43-.21,2.86-.44,4.28-.67l2-.33c1.56-.27,3.12-.56,4.68-.86l1.52-.29q2.79-.55,5.56-1.18l.57-.12a241.48,241.48,0,0,0,24.93-7.12l.32-.12q2.85-1,5.67-2.05l.51-.19c1.83-.7,3.65-1.41,5.46-2.15l.51-.2c1.84-.76,3.66-1.53,5.48-2.33l.35-.15c1.91-.85,3.82-1.71,5.71-2.61h0v-125Z"/><polygon class="cls-3" points="290.96 129.94 267.52 129.94 267.52 106.5 242.13 106.5 242.13 129.94 191.34 129.94 191.34 155.34 165.94 155.34 165.94 208.08 191.34 208.08 191.34 229.57 216.73 229.57 216.73 210.03 216.73 206.13 216.73 178.78 242.13 178.78 242.13 155.34 267.52 155.34 267.52 180.73 242.13 180.73 242.13 206.13 267.52 206.13 267.52 229.57 290.96 229.57 290.96 208.08 316.36 208.08 316.36 182.68 290.96 182.68 290.96 129.94"/><polygon class="cls-4" points="242.13 206.13 242.13 180.73 267.52 180.73 267.52 155.34 242.13 155.34 242.13 178.78 216.73 178.78 216.73 206.13 216.73 210.03 216.73 229.57 267.52 229.57 267.52 206.13 242.13 206.13"/></g></g></svg>