<svg xmlns="http://www.w3.org/2000/svg" width="479" height="479" viewBox="0 0 479 479"><defs><style>.cls-1{fill:#232323;}.cls-2{fill:#ff6a81;}.cls-3{fill:#ffb0bf;}</style></defs><g id="Layer_2" data-name="Layer 2"><g id="Layer_1-2" data-name="Layer 1"><circle class="cls-1" cx="239.5" cy="239.5" r="239.5"/><polygon class="cls-2" points="342.21 161.66 298.09 161.66 298.09 117.55 250.3 117.55 250.3 161.66 154.71 161.66 154.71 209.46 106.92 209.46 106.92 308.72 154.71 308.72 154.71 349.16 202.5 349.16 202.5 312.39 202.5 305.04 202.5 253.57 250.3 253.57 250.3 209.46 298.09 209.46 298.09 257.25 250.3 257.25 250.3 305.04 298.09 305.04 298.09 349.16 342.21 349.16 342.21 308.72 390 308.72 390 260.93 342.21 260.93 342.21 161.66"/><polygon class="cls-3" points="250.3 305.04 250.3 257.25 298.09 257.25 298.09 209.46 250.3 209.46 250.3 253.57 202.5 253.57 202.5 305.04 202.5 312.39 202.5 349.16 298.09 349.16 298.09 305.04 250.3 305.04"/></g></g></svg>