<svg xmlns="http://www.w3.org/2000/svg" width="479" height="479" viewBox="0 0 479 479"><defs><style>.cls-1{fill:#232323;}.cls-2{fill:#ff6a81;}.cls-3{fill:#fff;}.cls-4{fill:#ffb0bf;}</style></defs><g id="Layer_2" data-name="Layer 2"><g id="Layer_1-2" data-name="Layer 1"><circle class="cls-1" cx="239.5" cy="239.5" r="239.5"/><path class="cls-1" d="M218.4,478.06c-1.35-.11-2.69-.23-4-.37C215.71,477.83,217.05,478,218.4,478.06Z"/><path class="cls-2" d="M220.61,478.26l-2.21-.2Z"/><path class="cls-2" d="M214.37,477.69c-.72-.07-1.43-.16-2.14-.24C212.94,477.53,213.65,477.62,214.37,477.69Z"/><rect class="cls-3" x="204.63" y="203.38" width="73.4" height="146.8"/><polygon class="cls-2" points="296.52 259.8 296.52 350.48 168.43 350.48 168.43 369.19 187.14 369.19 187.14 387.89 296.52 387.89 296.52 369.19 315.23 369.19 315.23 350.48 315.23 259.8 296.52 259.8"/><polygon class="cls-2" points="278.03 111.27 260.76 111.27 260.76 94 242.05 94 242.05 111.27 204.63 111.27 204.63 129.98 185.92 129.98 185.92 168.84 204.63 168.84 204.63 184.67 223.34 184.67 223.34 170.28 223.34 167.4 223.34 147.25 242.05 147.25 242.05 129.98 260.76 129.98 260.76 148.69 242.05 148.69 242.05 167.4 260.76 167.4 260.76 184.67 278.03 184.67 278.03 168.84 296.74 168.84 296.74 150.13 278.03 150.13 278.03 111.27"/><polygon class="cls-4" points="242.05 167.4 242.05 148.69 260.76 148.69 260.76 129.98 242.05 129.98 242.05 147.25 223.34 147.25 223.34 167.4 223.34 170.28 223.34 184.67 260.76 184.67 260.76 167.4 242.05 167.4"/></g></g></svg>