<?xml version="1.0" encoding="utf-8"?>
<!-- Generator: Adobe Illustrator 24.1.2, SVG Export Plug-In . SVG Version: 6.00 Build 0)  -->
<svg version="1.1" xmlns="http://www.w3.org/2000/svg" xmlns:xlink="http://www.w3.org/1999/xlink" x="0px" y="0px"
	 viewBox="0 0 707.4 766.2" style="enable-background:new 0 0 707.4 766.2;" xml:space="preserve">
<style type="text/css">
	.st0{fill:#E8E8E8;}
	.st1{fill:#FFF8FA;}
	.st2{fill:#FFE3EA;}
	.st3{fill:#FCCAD5;}
	.st4{fill:#FFB0BF;}
	.st5{fill:#FFFFFF;}
	.st6{fill:#FF6A81;}
</style>
<g id="Layer_2">
	<path class="st0" d="M661.7,352.4c-3-11-7.4-21.7-12.3-31.9c-3.2-6.7-7-13.1-11.3-19.1c-6.2-8.8-12.9-17.5-20.4-25.2
		c-7.6-7.9-16.1-14.5-24.8-21.1c-32.2-24.7-72-36.2-112-39.7c-21.3-1.8-42.3,0.2-63.4,3.4c-20.5,3.1-39.8,9-58.6,17.8
		c-15.4,7.3-28.4,17.6-39.3,29.8c-7.5-2-15.4-2.4-22.9,0.1c-10.4,3.4-21.9,10.1-26.6,20.5c-19.6,43-39.5,86.3-67.8,124.4
		c-11.8,14.8-24.6,28.7-35.4,44.4c-11.9,17.2-20.3,37.7-23.5,58.4c-1.9,12.4-3.5,24.8-2.7,37.4c0.8,12.4,2.4,25.4,6.5,37.2
		c8,22.9,21,42.2,37.6,59.9c12.2,13,26.2,24.3,40.7,34.7c11.8,8.5,24.5,15.8,37.7,21.8c16.4,7.5,33.2,14.2,50.7,18.8
		c17.4,4.5,35.4,7.2,53.3,8.6c14.3,1.2,28.8,1.1,43.1-0.3c17.8-1.8,35.7-4.5,52.9-9.5c36.7-10.7,69.3-30.2,100.5-51.7
		c32.7-22.6,66.3-47.2,82.9-84.8c8-18,13.7-35.8,16.5-55.4c2.9-20,4.4-39.9,4.9-60.1C669.1,431.3,672,390.7,661.7,352.4z"/>
</g>
<g id="Layer_1">
	<g id="Page-1">
		<g id="_x30_11---Candle" transform="translate(-1)">
			<g id="Color" transform="translate(1 1)">
				<path id="Shape" class="st1" d="M525.3,546.8c-0.1,10.2-8.3,18.4-18.5,18.5H155c-10.2,0-18.5-8.3-18.5-18.5
					c0-3.1,0.8-6.1,2.2-8.8c0.8-1.6,1.9-3,3.2-4.3c3.4-3.5,8.1-5.5,13.1-5.5h351.7C517,528.4,525.2,536.6,525.3,546.8z"/>
				<path id="Shape_1_" class="st2" d="M506.8,528.3H479c10.2,0,18.5,8.3,18.5,18.5c-0.1,10.2-8.3,18.4-18.5,18.5h27.8
					c10.2-0.1,18.4-8.3,18.5-18.5C525.2,536.6,517,528.4,506.8,528.3z"/>
				<path id="Shape_2_" class="st1" d="M432.7,398.8c0,35.3-22.2,66.8-55.5,78.5c-18,6.4-37.6,6.4-55.5,0
					c-33.3-11.7-55.6-43.2-55.5-78.5H432.7z"/>
				<path id="Shape_3_" class="st2" d="M404.9,398.8c0,35.3-22.2,66.8-55.5,78.5c-4.5,1.6-9.2,2.8-13.9,3.6
					c4.6,0.8,9.2,1.2,13.9,1.2c9.5,0,18.9-1.6,27.8-4.8c33.3-11.7,55.6-43.2,55.5-78.5H404.9z"/>
				<path id="Shape_4_" class="st1" d="M460.5,380.2c-0.1,10.2-8.3,18.4-18.5,18.5H256.8c-10.2,0-18.5-8.3-18.5-18.5
					c0.1-10.2,8.3-18.4,18.5-18.5H442C452.2,361.8,460.4,370,460.5,380.2z"/>
				<path id="Shape_5_" class="st2" d="M442,361.7h-27.8c10.2,0,18.5,8.3,18.5,18.5c-0.1,10.2-8.3,18.4-18.5,18.5H442
					c10.2-0.1,18.4-8.3,18.5-18.5C460.4,370,452.2,361.8,442,361.7z"/>
				<path id="Shape_6_" class="st3" d="M414.2,257.4v104.3H284.6V195c0.5,0.1,1,0.1,1.6,0.1h16.9c10.2,0,18.5,8.3,18.5,18.5v55.5
					c0,5.5,2.4,10.6,6.6,14.2c4.2,3.5,9.7,5,15.1,4.1c9.1-1.9,15.6-10,15.4-19.3v-54.4c0-10.2,8.3-18.5,18.5-18.5h9.3
					c10.2,0,18.5,8.3,18.5,18.5v27.8C404.9,248,408.5,254.1,414.2,257.4z"/>
				<path id="Shape_7_" class="st4" d="M404.9,241.4v-27.8c0-10.2-8.3-18.5-18.5-18.5h-9.3c-3.3,0-6.5,0.9-9.3,2.6
					c5.7,3.3,9.2,9.4,9.3,15.9v27.8c0,6.6,3.5,12.7,9.3,16v104.3h27.8V257.4C408.5,254.1,404.9,248,404.9,241.4z"/>
				<path id="Shape_8_" class="st3" d="M191.8,525.5c1.4,0.8,2.7,1.7,3.9,2.9H155c-4.9,0-9.6,1.9-13.1,5.5c-1.3,1.2-2.4,2.7-3.2,4.3
					c-33.6-20.2-68.2-47.7-75.2-90.6c-4.4-27.5,4.6-66.5,30.6-88c19.1-15.5,45.2-19.3,67.8-9.8c20.4,6.2,35.7,23.2,39.7,44.1
					c2.7,24-8,47.6-27.8,61.5c-5.2,4.1-12.2,5.1-18.3,2.7c-6.1-2.4-10.5-8-11.5-14.5c-1-6.5,1.7-13.1,6.8-17.2
					c9-5.8,14.4-15.8,14.2-26.6c-2.2-7.5-8.2-13.3-15.7-15.2c-10.4-4.9-22.6-3.6-31.7,3.5c-13.9,14.1-20.5,33.9-17.7,53.6
					c6,37,47.3,59.6,83.8,79.6L191.8,525.5z"/>
				<path id="Shape_9_" class="st3" d="M377.2,477.2v51.1h-55.5v-51.1C339.6,483.7,359.2,483.7,377.2,477.2z"/>
				<path id="Shape_10_" class="st4" d="M349.4,482.1v46.3h27.8v-51.1C368.3,480.4,358.9,482.1,349.4,482.1z"/>
				<path id="Shape_11_" class="st1" d="M442,167.4v74c0,10.2-8.3,18.5-18.5,18.5c-10.2,0-18.5-8.3-18.5-18.5v-27.8
					c0-10.2-8.3-18.5-18.5-18.5h-9.3c-10.2,0-18.5,8.3-18.5,18.5v54.4c0.3,9.3-6.2,17.5-15.4,19.3c-5.4,0.9-10.9-0.6-15.1-4.1
					c-4.2-3.5-6.6-8.7-6.6-14.2v-55.5c0-10.2-8.3-18.5-18.5-18.5h-16.9c-0.5,0-1.1,0-1.6-0.1c-14.3-0.4-26.2-11.4-27.7-25.6
					c-0.6-7.7,2.1-15.3,7.3-20.9c5.2-5.7,12.6-8.9,20.3-8.9h129.6C429.5,139.6,442,152,442,167.4z"/>
				<path id="Shape_12_" class="st2" d="M358.7,195.1h-9.3c-10.2,0-18.5,8.3-18.5,18.5v54.4c0,4.8-1.7,9.4-4.7,13.1
					c4.2,5,10.7,7.3,17.1,6.2c9.1-1.9,15.6-10,15.4-19.3v-54.4c0-6.6,3.6-12.6,9.3-15.9C365.1,196,361.9,195.1,358.7,195.1z"/>
				<path id="Shape_13_" class="st2" d="M414.2,139.6h-27.8c15.3,0,27.8,12.4,27.8,27.8v74c0,4.4-1.7,8.7-4.6,12
					c1.3,1.6,2.9,2.9,4.6,4c5.7,3.3,12.8,3.3,18.5,0s9.3-9.4,9.3-16v-74C442,152,429.5,139.6,414.2,139.6z"/>
				<path id="Shape_14_" class="st1" d="M386.4,102.5c0,20.4-16.6,37-37,37s-37-16.6-37-37c0-14.3,18-49.2,28.9-69.1
					c1.6-3,4.8-4.8,8.1-4.8c3.4,0,6.5,1.8,8.1,4.8C368.4,53.2,386.4,88.2,386.4,102.5L386.4,102.5z"/>
				<path id="Shape_15_" class="st2" d="M357.6,33.3c-1.6-3-4.8-4.8-8.1-4.8s-6.5,1.8-8.1,4.8c-1.7,3.2-3.7,6.9-5.7,10.8
					c10.5,20,23.1,46.4,23.1,58.4c0,15.1-9.2,28.7-23.1,34.3c4.4,1.8,9.1,2.8,13.9,2.8c20.5,0,37-16.6,37-37.1
					C386.4,88.2,368.4,53.2,357.6,33.3z"/>
			</g>
			<g id="Color_copy" transform="translate(1 1)">
				<path id="Shape_16_" class="st5" d="M138.7,538.1c-3.1,5.7-2.9,12.7,0.4,18.3c3.3,5.6,9.4,9,15.9,9h27.8c-6.5,0-12.6-3.4-15.9-9
					c-3.3-5.6-3.5-12.5-0.4-18.3c-33.6-20.2-68.2-47.7-75.2-90.6c-4.4-27.5,4.6-66.5,30.6-88c7.9-6.6,17.3-11.1,27.4-13.3
					c-19.4-4.4-39.8,0.5-55.2,13.3c-26,21.6-35.1,60.5-30.6,88C70.5,490.4,105.1,517.9,138.7,538.1L138.7,538.1z"/>
				<path id="Shape_17_" class="st5" d="M312.4,139.6h-27.8c-7.7,0-15.1,3.2-20.3,8.9s-7.9,13.2-7.3,20.9
					c1.5,14.3,13.3,25.2,27.7,25.6v166.7h27.8V195c-14.3-0.4-26.2-11.4-27.7-25.6c-0.6-7.7,2.1-15.3,7.3-20.9
					C297.3,142.8,304.7,139.6,312.4,139.6L312.4,139.6z"/>
				<path id="Shape_18_" class="st5" d="M357.6,33.3c-1.6-3-4.8-4.8-8.1-4.8s-6.5,1.8-8.1,4.8c-8,14.7-28.9,54.1-28.9,69.1
					c0,17.7,12.5,32.9,29.8,36.4c7,1.4,14.3,0.6,20.9-2.1c-13.9-5.7-23-19.2-23-34.3c0-12.2,13.7-40.3,23.1-58.4
					C361.3,40.2,359.3,36.5,357.6,33.3z"/>
			</g>
			<g id="Outline">
				<path id="Shape_19_" class="st5" d="M73,426.3l-18.4-1.6c1.8-27.4,14.2-53,34.6-71.4l11.8,14.3C84.5,382.8,74.4,403.8,73,426.3z
					"/>
				<g>
					<path id="Shape_20_" class="st6" d="M55.4,449.9c7.5,45.7,43.9,74.8,73.4,93.2c-1.5,8.1,0.7,16.4,6,22.7
						c5.3,6.3,13.1,9.9,21.3,9.8h351.7c15.3,0,27.8-12.4,27.8-27.8c0-15.3-12.4-27.8-27.8-27.8H387.4v-35.6
						c30.6-13.4,51.7-42.3,55.1-75.5h0.5c15.3,0,27.8-12.4,27.8-27.8c0-15.3-12.4-27.8-27.8-27.8h-18.5v-83.3
						c15.3,0,27.8-12.4,27.8-27.8v-74c0-20.4-16.6-37-37-37h-28c6.1-8,9.5-17.8,9.5-27.9c0-12.5-10.1-37.3-30.1-73.6
						c-3.3-5.9-9.5-9.6-16.2-9.6s-13,3.7-16.2,9.6c-19.9,36.3-30.1,61.1-30.1,73.6c0,10.1,3.4,19.9,9.5,27.9h-28
						c-10.3,0-20.1,4.3-27.1,11.8c-7,7.5-10.6,17.6-9.8,27.9c1.4,15.6,12.5,28.7,27.7,32.7v149.7h-18.5c-15.3,0-27.8,12.4-27.8,27.8
						c0,15.3,12.4,27.8,27.8,27.8h0.5c3.4,33.3,24.4,62.1,55.1,75.5v35.6H199.9c-0.9-0.6-1.8-1.2-2.7-1.7l-8.1-4.4
						c-34.5-18.9-73.6-40.4-78.9-72.9c-2.3-16.4,3-33,14.4-45c6.5-5.1,15.4-5.9,22.6-2c2.1,0.8,9.1,3.6,9.8,8
						c0.7,4.1-2.4,11.2-10.8,17.8c-5.8,4.6-9.6,11.4-10.4,18.7c-0.8,7.3,1.3,14.6,5.8,20.3c4.6,5.8,11.2,9.5,18.6,10.4
						s14.7-1.2,20.5-5.8c22.5-15.9,34.4-42.9,31.2-70.2c-4.5-24.3-22.1-44.1-45.7-51.4c-25.8-10.7-55.4-6.3-76.9,11.4
						c-2.6,2.1-3.9,5.4-3.3,8.7c0.5,3.3,2.8,6.1,6,7.2c3.1,1.1,6.7,0.5,9.2-1.7c16.6-13.4,39.2-16.5,58.8-8.2
						c17.2,5.1,30.2,19.4,33.7,37c2.1,20.7-7.3,40.9-24.4,52.7c-1.9,1.5-4.4,2.2-6.8,2c-2.5-0.3-4.7-1.6-6.2-3.5
						c-1.5-1.9-2.2-4.3-1.9-6.7c0.3-2.5,1.5-4.7,3.5-6.3c11.8-7.7,18.5-21.2,17.6-35.3c-2.5-11-10.9-19.6-21.7-22.5
						c-13.5-6.1-29.2-4.1-40.7,5.1C96.4,398,88.6,421.1,91.9,444c5.7,34.9,37.4,57.3,70.2,76.1H156c-6.7,0-13.2,2.5-18.2,6.9
						c-27.8-17.5-58-42.2-64.2-80.1c-1-6.8-1.2-13.8-0.6-20.7c0.3-4.9-3.2-9.2-8-10c-2.5-0.4-5.1,0.3-7.1,1.9s-3.2,4-3.3,6.5
						C53.9,433.1,54.1,441.6,55.4,449.9L55.4,449.9z M322.6,103.5c0-6.8,7.3-27.4,27.8-64.7c20.5,37.3,27.8,57.9,27.8,64.7
						c0,15.3-12.4,27.8-27.8,27.8S322.6,118.8,322.6,103.5z M267.1,169.7c-0.4-5.4,1.6-10.6,5.4-14.4c3.5-3.5,8.2-5.5,13.1-5.4
						h129.6c10.2,0,18.5,8.3,18.5,18.5v74c0,5.1-4.1,9.3-9.3,9.3c-5.1,0-9.2-4.2-9.3-9.3v-27.8c0-15.3-12.4-27.8-27.8-27.8h-9.3
						c-15.3,0-27.8,12.4-27.8,27.8V269c0.2,4.8-3,9-7.6,10.2c-2.7,0.5-5.5-0.3-7.6-2.1c-2.1-1.8-3.3-4.3-3.3-7.1v-55.5
						c0-15.3-12.4-27.8-27.8-27.8h-16.9C277.1,187.1,268.5,179.7,267.1,169.7L267.1,169.7z M294.9,205.4h9.3c5.1,0,9.3,4.1,9.3,9.3
						v55.5c0,15.3,12.4,27.7,27.8,27.8c1.6,0,3.1-0.1,4.6-0.4c13.6-2.7,23.3-14.7,23.1-28.5v-54.4c0-5.1,4.1-9.3,9.3-9.3h9.3
						c5.1,0,9.3,4.1,9.3,9.3v27.8c0,7.8,3.4,15.3,9.3,20.5v90.6H294.9V205.4z M248.6,381.2c0-5.1,4.1-9.3,9.3-9.3H443
						c5.1,0,9.3,4.1,9.3,9.3c0,5.1-4.1,9.3-9.3,9.3H257.8C252.7,390.5,248.6,386.4,248.6,381.2z M277,409h146.8
						c-4.6,37-36.1,64.8-73.4,64.8S281.6,446,277,409z M331.9,490.5c12.2,2.5,24.8,2.5,37,0v29.6h-37V490.5z M156,538.6h351.7
						c5.1,0,9.3,4.1,9.3,9.3c0,5.1-4.1,9.3-9.3,9.3H156c-5.1,0-9.3-4.1-9.3-9.3C146.8,542.7,150.9,538.6,156,538.6z"/>
					<path id="Shape_21_" class="st6" d="M77.5,381.6c-2.2-1.3-4.9-1.5-7.3-0.7c-2.4,0.8-4.4,2.7-5.4,5c-1.2,2.3-1.3,5-0.3,7.3
						c0.9,2.4,2.9,4.2,5.3,5.1c4.6,1.6,9.7-0.4,11.9-4.7C83.4,389.2,81.7,384.1,77.5,381.6z"/>
				</g>
			</g>
		</g>
	</g>
</g>
</svg>
