<?xml version="1.0" standalone="no"?>
<!DOCTYPE svg PUBLIC "-//W3C//DTD SVG 20010904//EN"
 "http://www.w3.org/TR/2001/REC-SVG-20010904/DTD/svg10.dtd">
<svg version="1.0" xmlns="http://www.w3.org/2000/svg"
 width="512.000000pt" height="512.000000pt" viewBox="0 0 512.000000 512.000000"
 preserveAspectRatio="xMidYMid meet">
<metadata>
Created by potrace 1.11, written by Peter Selinger 2001-2013
</metadata>
<g transform="translate(0.000000,512.000000) scale(0.100000,-0.100000)"
fill="#000000" stroke="none">
<path d="M2305 5109 c-38 -4 -87 -10 -107 -13 -21 -3 -55 -8 -75 -12 -79 -11
-292 -66 -393 -101 -281 -96 -542 -240 -780 -430 -215 -172 -461 -456 -602
-698 -78 -133 -224 -469 -242 -556 -3 -13 -10 -40 -16 -59 -28 -90 -53 -224
-75 -390 -17 -139 -13 -520 8 -650 25 -150 27 -159 53 -265 69 -273 185 -541
333 -764 57 -87 102 -152 111 -161 3 -3 31 -37 63 -77 164 -206 416 -423 662
-570 179 -107 482 -240 608 -267 12 -3 56 -14 97 -25 41 -11 93 -22 115 -26
22 -3 47 -7 55 -10 17 -4 62 -11 146 -22 78 -10 492 -10 574 0 107 12 173 22
225 34 11 2 31 6 45 9 14 3 33 7 42 10 10 3 30 8 45 10 67 12 338 110 443 161
149 71 391 214 430 253 3 3 23 18 45 34 96 71 295 257 376 352 174 205 315
427 417 660 40 89 117 309 126 356 2 13 11 50 19 83 20 77 45 220 54 315 12
117 9 505 -5 600 -86 586 -337 1092 -737 1485 -124 121 -155 149 -251 220 -49
37 -97 73 -107 81 -9 8 -19 14 -21 14 -2 0 -44 25 -92 56 -298 187 -668 315
-1038 358 -119 14 -436 17 -551 5z"/>
</g>
</svg>
