<?xml version="1.0" encoding="utf-8"?>
<!-- Generator: Adobe Illustrator 24.1.2, SVG Export Plug-In . SVG Version: 6.00 Build 0)  -->
<svg version="1.1" xmlns="http://www.w3.org/2000/svg" xmlns:xlink="http://www.w3.org/1999/xlink" x="0px" y="0px"
	 viewBox="0 0 683.2 721.2" style="enable-background:new 0 0 683.2 721.2;" xml:space="preserve">
<style type="text/css">
	.st0{fill:#E8E8E8;}
	.st1{fill:#FFFFFF;}
	.st2{fill:#FFE3EA;}
	.st3{fill:#FCCAD5;}
	.st4{fill:#FF6A81;}
</style>
<g id="Layer_2">
</g>
<g id="Capa_1">
	<g>
		<path class="st0" d="M121.6,532.8c-12.6,26.3-13.8,54.5-14.7,83c-0.6,18.1,3.3,35.3,13.1,50.7c6.6,10.5,17.4,19,28.3,24.6
			c7.6,3.9,16.3,6.5,24.8,7.8c20.1,2.9,37.3,0.7,56.7-4c14.7-3.6,27.8-10.5,41-17.7c18.9-10.3,35.7-23.7,52.6-36.9
			c15.7-12.3,31.3-24.7,46.6-37.5c11.7-9.8,23.3-19.7,34.6-29.9c7.5,3.2,15.7,4.7,24,3.6c13.1-1.8,27.8-7.3,35.7-18.6
			c31-44.3,65.1-86.4,102-125.9c9.1-9.8,18.4-19.4,27.9-28.8c9.1-9.1,18.9-17.6,27.8-27c13.4-14.1,22.3-30.9,27.6-49.4
			c7.5-26.1-2.4-53.5-21.7-71.5c-15.1-14.2-37.4-19.6-57.5-21.9c-16.7-2-34-2.5-50.8-0.8c-7.1,0.7-14.2,1.8-21.3,3.1
			c-27-1.8-54.4-0.7-80.9,4c-5.8,1-11.6,2.4-17,4.7c-41.3,3.9-82.5,9.9-123.2,18.2c-22.7,4.6-45.5,9.3-67.8,15.6
			c-20.2,5.7-41,14.7-56.7,28.9c-5.7,5.2-11.7,10.3-16.6,16.3c-5.2,6.3-9.6,13.5-13.8,20.5c-5.2,8.5-8.4,17.6-11.4,27.1
			c-7.2,22.3-9.5,45.2-7.9,68.7c1.5,21.6,6.5,43,12.1,64c0,0.6,0.1,1.2,0.1,1.8c0.7,8.1,3,16,6.6,23.1c0.3,1,0.5,1.9,0.8,2.9
			C122.2,531.7,121.9,532.2,121.6,532.8z"/>
		<path class="st1" d="M480.7,158.6c0.2-1.5,0.3-2.9,0.3-4.5c0-16.3-12.2-29.8-28-31.7c-41.2-43.9-99.8-71.3-164.8-71.3
			c-124.8,0-226,101.2-226,226c0,34.3,7.6,66.7,21.3,95.8c-10.2,1.4-20.1,6-28,13.9c-19.1,19.1-19.1,50.1,0,69.2l69.2,69.2
			l51.7-51.7c33,18.8,71.1,29.6,111.8,29.6c124.8,0,226-101.2,226-226C514.2,233.7,501.9,193.1,480.7,158.6z"/>
		<path id="Shape_15_" class="st2" d="M166.4,492.1c-2.2,4.2-27.6,28.4-32.2,28.4c-4.6,0-7.2,6.8-9.5,2.6
			c-2.4-4.5,15.3-10.4,12.5-15.9c14.7-28.1,32.2-65.1,32.2-81.9c0-21.2-12.8-40.3-32.2-48.1c6.1-2.5,12.7-3.9,19.4-3.9
			c28.6,0,51.6,23.3,51.6,52.1C207.9,445.3,181.4,464.2,166.4,492.1z"/>
		<path class="st2" d="M438.3,124.5c0,0,32.4,25.7,16.2,60.4c11.5-1.8,33.6-26.2,25.1-42.2C465.7,116.8,438.3,124.5,438.3,124.5z"/>
		<g id="XMLID_3_">
			<path class="st3" d="M330.6,498.9c-14,2.7-28.5,4.2-43.4,4.2C329.1,503.1,337.7,503.3,330.6,498.9z"/>
			<path class="st2" d="M480.3,159.6c-3.1,14.5-15.9,25.3-31.3,25.3c-17.7,0-32-14.3-32-32s14.3-32,32-32c0.5,0,1.1,0,1.6,0
				c-41.2-43.1-99.1-69.9-163.4-69.9c189.7,35.1,138.8,100.3,65.6,173.5c11.5,14.4,18.4,32.6,18.4,52.5c0,46.4-37.6,84-84,84
				c-14.4,0-28-3.6-39.9-10.1c-3.9,9.9-6.1,19.7-6.1,29.4c0,82.9,75.3,109.8,89.4,118.5c104.1-20.2,182.6-111.8,182.6-221.8
				C513.2,234.1,501.1,193.8,480.3,159.6z"/>
			<g id="XMLID_694_">
				<path id="XMLID_697_" class="st4" d="M287.2,231.1c-25.4,0-46,20.6-46,46c0,25.4,20.6,46,46,46c25.4,0,46-20.6,46-46
					S312.5,231.1,287.2,231.1L287.2,231.1z M287.2,303.1c-14.3,0-26-11.7-26-26s11.7-26,26-26s26,11.7,26,26
					S301.5,303.1,287.2,303.1L287.2,303.1z"/>
				<path id="XMLID_726_" class="st4" d="M287.2,183.1c-51.8,0-94,42.2-94,94s42.2,94,94,94s94-42.2,94-94S339,183.1,287.2,183.1
					L287.2,183.1z M287.2,351.1c-40.8,0-74-33.2-74-74s33.2-74,74-74s74,33.2,74,74S328,351.1,287.2,351.1L287.2,351.1z"/>
				<path id="XMLID_729_" class="st4" d="M542.8,28.3c-1.5-5.3-7.1-8.4-12.4-6.8l-50.9,14.7c-4.8,0.7-8.5,4.9-8.5,9.9v71.1
					c-4.7-2.9-10-4.9-15.8-5.8c-21.2-21.5-46-38.6-73.7-50.7c-29.8-13-61.6-19.6-94.4-19.6c-63,0-122.3,24.5-166.9,69.1
					c-44.6,44.6-69.1,103.8-69.1,166.9c0,30.4,5.7,59.8,16.8,87.6c-7.1,2.9-13.8,7.2-19.5,12.9c-23,23-23,60.4,0,83.3l69.2,69.2
					c2,2,4.5,2.9,7.1,2.9s5.1-1,7.1-2.9l44.6-44.6c33.9,18.1,72.1,27.6,110.8,27.6c46.7,0,91.8-13.6,130.5-39.4
					c4.6-3.1,5.8-9.3,2.8-13.9c-3.1-4.6-9.3-5.8-13.9-2.8c-35.4,23.6-76.7,36-119.5,36c-33.4,0-66.3-7.7-95.9-22.4l9.7-9.7
					c23-23,23-60.4,0-83.3c-20.7-20.7-53.2-22.8-76.3-6c-10.9-7.9-23.9-11.6-36.8-11.1c-11.1-26.4-16.7-54.4-16.7-83.4
					c0-119.1,96.9-216,216-216c53.5,0,103.7,19.1,143.1,54.2c-13.8,6.9-23.4,21.2-23.4,37.6c0,23.2,18.8,42,42,42
					c12.5,0,23.8-5.5,31.5-14.3c14.9,29.8,22.7,62.8,22.7,96.4c0,42.7-12.5,84-36,119.5c-3.1,4.6-1.8,10.8,2.8,13.9
					c1.7,1.1,3.6,1.7,5.5,1.7c3.2,0,6.4-1.6,8.3-4.5c25.7-38.7,39.4-83.9,39.4-130.5c0-42.2-11.2-83.4-32.5-119.5
					c0.2-1.5,0.3-3.1,0.3-4.6V53.7l45-13C541.3,39.2,544.3,33.6,542.8,28.3L542.8,28.3z M131.8,391.8c15.2-15.2,39.9-15.2,55.1,0
					c15.2,15.2,15.2,39.9,0,55.1L124.7,509l-62.1-62.1c-15.2-15.2-15.2-39.9,0-55.1c7.6-7.6,17.6-11.4,27.5-11.4s19.9,3.8,27.5,11.4
					C121.5,395.7,127.9,395.7,131.8,391.8z M449,175c-12.1,0-22-9.9-22-22s9.9-22,22-22s22,9.9,22,22S461.1,175,449,175z"/>
				<path id="XMLID_737_" class="st4" d="M287.2,465.8c104,0,188.7-84.6,188.7-188.7c0-5.5-4.5-10-10-10s-10,4.5-10,10
					c0,93-75.7,168.7-168.7,168.7c-5.5,0-10,4.5-10,10S281.7,465.8,287.2,465.8L287.2,465.8z"/>
				<path id="XMLID_738_" class="st4" d="M277.2,408.4c0,5.5,4.5,10,10,10c77.9,0,141.3-63.4,141.3-141.3c0-5.5-4.5-10-10-10
					s-10,4.5-10,10c0,66.9-54.4,121.3-121.3,121.3C281.7,398.4,277.2,402.9,277.2,408.4L277.2,408.4z"/>
				<path id="XMLID_739_" class="st4" d="M447,426.9c-2.6,0-5.2,1.1-7.1,2.9c-1.9,1.9-2.9,4.4-2.9,7.1c0,2.6,1.1,5.2,2.9,7.1
					c1.9,1.9,4.4,2.9,7.1,2.9c2.6,0,5.2-1.1,7.1-2.9s2.9-4.4,2.9-7.1c0-2.6-1.1-5.2-2.9-7.1C452.2,428,449.6,426.9,447,426.9z"/>
			</g>
		</g>
	</g>
</g>
</svg>
